<mxfile host="app.diagrams.net" agent="Mozilla/5.0 (Windows NT 10.0; Win64; x64) AppleWebKit/537.36 (KHTML, like Gecko) Chrome/132.0.0.0 YaBrowser/25.2.0.0 Safari/537.36" version="26.1.1">
  <diagram name="Page-1" id="93AfGYuef2_yZVPc6nXK">
    <mxGraphModel dx="1374" dy="667" grid="1" gridSize="10" guides="1" tooltips="1" connect="1" arrows="1" fold="1" page="1" pageScale="1" pageWidth="850" pageHeight="1100" math="1" shadow="0">
      <root>
        <mxCell id="0" />
        <mxCell id="1" parent="0" />
        <mxCell id="aKUcC3R_XuYBYOixHhx6-7" value="" style="edgeStyle=orthogonalEdgeStyle;rounded=0;orthogonalLoop=1;jettySize=auto;html=1;" parent="1" source="aKUcC3R_XuYBYOixHhx6-1" target="aKUcC3R_XuYBYOixHhx6-6" edge="1">
          <mxGeometry relative="1" as="geometry" />
        </mxCell>
        <mxCell id="aKUcC3R_XuYBYOixHhx6-1" value="Метод простых итерации&lt;div&gt;\(F(x)=0, x_{0}\)&lt;/div&gt;" style="ellipse;whiteSpace=wrap;html=1;" parent="1" vertex="1">
          <mxGeometry x="280" y="50" width="120" height="80" as="geometry" />
        </mxCell>
        <mxCell id="aKUcC3R_XuYBYOixHhx6-5" value="" style="edgeStyle=orthogonalEdgeStyle;rounded=0;orthogonalLoop=1;jettySize=auto;html=1;" parent="1" source="aKUcC3R_XuYBYOixHhx6-2" target="aKUcC3R_XuYBYOixHhx6-4" edge="1">
          <mxGeometry relative="1" as="geometry" />
        </mxCell>
        <mxCell id="aKUcC3R_XuYBYOixHhx6-2" value="$$i = \overline{0,m}$$" style="shape=hexagon;perimeter=hexagonPerimeter2;whiteSpace=wrap;html=1;fixedSize=1;" parent="1" vertex="1">
          <mxGeometry x="250" y="280" width="180" height="80" as="geometry" />
        </mxCell>
        <mxCell id="aKUcC3R_XuYBYOixHhx6-10" value="" style="edgeStyle=orthogonalEdgeStyle;rounded=0;orthogonalLoop=1;jettySize=auto;html=1;" parent="1" source="aKUcC3R_XuYBYOixHhx6-4" target="aKUcC3R_XuYBYOixHhx6-9" edge="1">
          <mxGeometry relative="1" as="geometry" />
        </mxCell>
        <mxCell id="Cu1czkGThFHapi_kjtvn-4" style="edgeStyle=none;curved=1;rounded=0;orthogonalLoop=1;jettySize=auto;html=1;exitX=0;exitY=0.5;exitDx=0;exitDy=0;entryX=1;entryY=0.5;entryDx=0;entryDy=0;fontSize=12;startSize=8;endSize=8;" edge="1" parent="1" source="aKUcC3R_XuYBYOixHhx6-4" target="Cu1czkGThFHapi_kjtvn-2">
          <mxGeometry relative="1" as="geometry" />
        </mxCell>
        <mxCell id="aKUcC3R_XuYBYOixHhx6-4" value="$$j = \overline{0,n}$$" style="shape=hexagon;perimeter=hexagonPerimeter2;whiteSpace=wrap;html=1;fixedSize=1;" parent="1" vertex="1">
          <mxGeometry x="280" y="400" width="120" height="80" as="geometry" />
        </mxCell>
        <mxCell id="aKUcC3R_XuYBYOixHhx6-8" style="edgeStyle=orthogonalEdgeStyle;rounded=0;orthogonalLoop=1;jettySize=auto;html=1;entryX=0.5;entryY=0;entryDx=0;entryDy=0;" parent="1" source="aKUcC3R_XuYBYOixHhx6-6" target="aKUcC3R_XuYBYOixHhx6-2" edge="1">
          <mxGeometry relative="1" as="geometry" />
        </mxCell>
        <mxCell id="aKUcC3R_XuYBYOixHhx6-6" value="\(n = |F(x)|\)&lt;div&gt;\(m = \text{макс. кол-во итер.}\)&lt;div&gt;\(\epsilon = 5 \cdot 10^6\)&lt;/div&gt;&lt;div&gt;\(T = [0.001, 0.001, ..., 0.001], |T| = n\)&lt;/div&gt;&lt;/div&gt;" style="whiteSpace=wrap;html=1;" parent="1" vertex="1">
          <mxGeometry x="217.5" y="170" width="245" height="70" as="geometry" />
        </mxCell>
        <mxCell id="aKUcC3R_XuYBYOixHhx6-9" value="$$x_{i+1} = x_i - T_i \cdot F_i(x_i)$$" style="whiteSpace=wrap;html=1;" parent="1" vertex="1">
          <mxGeometry x="255" y="520" width="170" height="60" as="geometry" />
        </mxCell>
        <mxCell id="aKUcC3R_XuYBYOixHhx6-13" value="Вернуть \(x_{i+1}\)" style="ellipse;whiteSpace=wrap;html=1;" parent="1" vertex="1">
          <mxGeometry x="-210" y="400" width="120" height="80" as="geometry" />
        </mxCell>
        <mxCell id="Cu1czkGThFHapi_kjtvn-9" style="edgeStyle=none;curved=1;rounded=0;orthogonalLoop=1;jettySize=auto;html=1;exitX=0.5;exitY=1;exitDx=0;exitDy=0;entryX=0.5;entryY=0;entryDx=0;entryDy=0;fontSize=12;startSize=8;endSize=8;" edge="1" parent="1" source="aKUcC3R_XuYBYOixHhx6-15" target="aKUcC3R_XuYBYOixHhx6-18">
          <mxGeometry relative="1" as="geometry" />
        </mxCell>
        <mxCell id="aKUcC3R_XuYBYOixHhx6-15" value="$$j = \overline{0,n}$$" style="shape=hexagon;perimeter=hexagonPerimeter2;whiteSpace=wrap;html=1;fixedSize=1;" parent="1" vertex="1">
          <mxGeometry x="30" y="540" width="120" height="80" as="geometry" />
        </mxCell>
        <mxCell id="Cu1czkGThFHapi_kjtvn-16" style="edgeStyle=none;curved=1;rounded=0;orthogonalLoop=1;jettySize=auto;html=1;exitX=0;exitY=0.5;exitDx=0;exitDy=0;entryX=1;entryY=0.5;entryDx=0;entryDy=0;fontSize=12;startSize=8;endSize=8;" edge="1" parent="1" source="aKUcC3R_XuYBYOixHhx6-18" target="aKUcC3R_XuYBYOixHhx6-20">
          <mxGeometry relative="1" as="geometry" />
        </mxCell>
        <mxCell id="aKUcC3R_XuYBYOixHhx6-18" value="$$ |F_i(x_{i+1})| &amp;gt;= |F_i(x_i)|$$" style="rhombus;whiteSpace=wrap;html=1;" parent="1" vertex="1">
          <mxGeometry y="660" width="180" height="100" as="geometry" />
        </mxCell>
        <mxCell id="aKUcC3R_XuYBYOixHhx6-20" value="$$ T_i = -T_i $$" style="whiteSpace=wrap;html=1;" parent="1" vertex="1">
          <mxGeometry x="-200" y="680" width="120" height="60" as="geometry" />
        </mxCell>
        <mxCell id="aKUcC3R_XuYBYOixHhx6-26" value="нет" style="text;html=1;align=center;verticalAlign=middle;resizable=0;points=[];autosize=1;strokeColor=none;fillColor=none;rotation=-90;" parent="1" vertex="1">
          <mxGeometry x="170" y="640" width="40" height="30" as="geometry" />
        </mxCell>
        <mxCell id="Cu1czkGThFHapi_kjtvn-6" style="edgeStyle=none;curved=1;rounded=0;orthogonalLoop=1;jettySize=auto;html=1;exitX=0.5;exitY=1;exitDx=0;exitDy=0;entryX=0.5;entryY=0;entryDx=0;entryDy=0;fontSize=12;startSize=8;endSize=8;" edge="1" parent="1" source="Cu1czkGThFHapi_kjtvn-2" target="aKUcC3R_XuYBYOixHhx6-15">
          <mxGeometry relative="1" as="geometry" />
        </mxCell>
        <mxCell id="Cu1czkGThFHapi_kjtvn-18" style="edgeStyle=none;curved=1;rounded=0;orthogonalLoop=1;jettySize=auto;html=1;exitX=0;exitY=0.5;exitDx=0;exitDy=0;entryX=1;entryY=0.5;entryDx=0;entryDy=0;fontSize=12;startSize=8;endSize=8;" edge="1" parent="1" source="Cu1czkGThFHapi_kjtvn-2" target="aKUcC3R_XuYBYOixHhx6-13">
          <mxGeometry relative="1" as="geometry" />
        </mxCell>
        <mxCell id="Cu1czkGThFHapi_kjtvn-2" value="$$ \bigwedge_{i=0}^{n} |x_{i+1} - x_{i}| &amp;lt; \epsilon $$" style="rhombus;whiteSpace=wrap;html=1;" vertex="1" parent="1">
          <mxGeometry x="-10" y="390" width="200" height="100" as="geometry" />
        </mxCell>
        <mxCell id="Cu1czkGThFHapi_kjtvn-7" value="нет" style="text;html=1;align=center;verticalAlign=middle;resizable=0;points=[];autosize=1;strokeColor=none;fillColor=none;rotation=90;" vertex="1" parent="1">
          <mxGeometry x="90" y="500" width="40" height="30" as="geometry" />
        </mxCell>
        <mxCell id="aKUcC3R_XuYBYOixHhx6-22" value="да" style="text;html=1;align=center;verticalAlign=middle;resizable=0;points=[];autosize=1;strokeColor=none;fillColor=none;" parent="1" vertex="1">
          <mxGeometry x="-40" y="680" width="40" height="30" as="geometry" />
        </mxCell>
        <mxCell id="Cu1czkGThFHapi_kjtvn-3" value="да" style="text;html=1;align=center;verticalAlign=middle;resizable=0;points=[];autosize=1;strokeColor=none;fillColor=none;" vertex="1" parent="1">
          <mxGeometry x="-70" y="440" width="40" height="30" as="geometry" />
        </mxCell>
        <mxCell id="Cu1czkGThFHapi_kjtvn-21" value="" style="endArrow=none;html=1;rounded=0;fontSize=12;startSize=8;endSize=8;curved=1;exitX=1;exitY=0.5;exitDx=0;exitDy=0;" edge="1" parent="1" source="aKUcC3R_XuYBYOixHhx6-18">
          <mxGeometry width="50" height="50" relative="1" as="geometry">
            <mxPoint x="270" y="630" as="sourcePoint" />
            <mxPoint x="210" y="710" as="targetPoint" />
            <Array as="points" />
          </mxGeometry>
        </mxCell>
        <mxCell id="Cu1czkGThFHapi_kjtvn-22" value="" style="endArrow=none;html=1;rounded=0;fontSize=12;startSize=8;endSize=8;curved=1;" edge="1" parent="1">
          <mxGeometry width="50" height="50" relative="1" as="geometry">
            <mxPoint x="210" y="710" as="sourcePoint" />
            <mxPoint x="210" y="580" as="targetPoint" />
          </mxGeometry>
        </mxCell>
        <mxCell id="Cu1czkGThFHapi_kjtvn-23" value="" style="endArrow=classic;html=1;rounded=0;fontSize=12;startSize=8;endSize=8;curved=1;entryX=1;entryY=0.5;entryDx=0;entryDy=0;" edge="1" parent="1" target="aKUcC3R_XuYBYOixHhx6-15">
          <mxGeometry width="50" height="50" relative="1" as="geometry">
            <mxPoint x="210" y="580" as="sourcePoint" />
            <mxPoint x="320" y="580" as="targetPoint" />
          </mxGeometry>
        </mxCell>
        <mxCell id="Cu1czkGThFHapi_kjtvn-24" value="" style="endArrow=none;html=1;rounded=0;fontSize=12;startSize=8;endSize=8;curved=1;exitX=0;exitY=0.5;exitDx=0;exitDy=0;" edge="1" parent="1" source="aKUcC3R_XuYBYOixHhx6-15">
          <mxGeometry width="50" height="50" relative="1" as="geometry">
            <mxPoint x="70" y="440" as="sourcePoint" />
            <mxPoint x="-251.77780151367188" y="580" as="targetPoint" />
          </mxGeometry>
        </mxCell>
        <mxCell id="Cu1czkGThFHapi_kjtvn-25" value="" style="endArrow=none;html=1;rounded=0;fontSize=12;startSize=8;endSize=8;curved=1;" edge="1" parent="1">
          <mxGeometry width="50" height="50" relative="1" as="geometry">
            <mxPoint x="-260" y="580" as="sourcePoint" />
            <mxPoint x="-260" y="320" as="targetPoint" />
          </mxGeometry>
        </mxCell>
        <mxCell id="Cu1czkGThFHapi_kjtvn-26" value="" style="endArrow=classic;html=1;rounded=0;fontSize=12;startSize=8;endSize=8;curved=1;entryX=0;entryY=0.5;entryDx=0;entryDy=0;" edge="1" parent="1" target="aKUcC3R_XuYBYOixHhx6-2">
          <mxGeometry width="50" height="50" relative="1" as="geometry">
            <mxPoint x="-260" y="320" as="sourcePoint" />
            <mxPoint x="80" y="360" as="targetPoint" />
          </mxGeometry>
        </mxCell>
      </root>
    </mxGraphModel>
  </diagram>
</mxfile>
